<svg xmlns="http://www.w3.org/2000/svg" width="138.77" height="135.292" viewBox="0 0 138.77 135.292">
  <path id="Icon_corebrands-adobe-illustrator" data-name="Icon corebrands-adobe-illustrator" d="M0,.451V135.743H138.77V.451ZM5.781,6.232h127.2V129.958H5.781ZM48.131,77.065,43.548,94.39c-.091.5-.273.585-.837.585H34.22c-.585,0-.677-.182-.585-.837l16.418-57.5a17.7,17.7,0,0,0,.564-4.835c0-.386.2-.564.5-.564H63.223c.386,0,.585.091.677.564L82.308,94.229c.113.473,0,.746-.473.746H72.3c-.5,0-.768-.113-.859-.5L66.657,77.061H48.114Zm16.128-9.4c-1.626-6.392-5.442-20.395-6.865-27.173h-.113c-1.219,6.752-4.293,18.2-6.661,27.173ZM90.278,35.53a5.919,5.919,0,0,1,11.839,0c0,3.816-2.485,5.919-6.032,5.919-3.456,0-5.828-2.1-5.828-5.919Zm.655,13.144c0-.451.182-.633.655-.633h9.081c.52,0,.7.182.7.677V94.364c0,.473-.091.655-.677.655H91.744c-.585,0-.768-.273-.768-.746v-45.6Z" transform="translate(0 -0.451)"/>
</svg>
