<svg xmlns="http://www.w3.org/2000/svg" width="137.743" height="134.291" viewBox="0 0 137.743 134.291">
  <path id="Icon_corebrands-adobe-photoshop" data-name="Icon corebrands-adobe-photoshop" d="M0,.451V134.742H137.743V.451ZM5.738,6.189H132V129H5.738ZM33.291,31.9c0-.383.809-.671,1.278-.671q7.4-.313,14.8-.293c15.918,0,22.1,8.721,22.1,19.887,0,14.6-10.58,20.851-23.541,20.851-2.2,0-2.936-.112-4.459-.112v22.06c0,.469-.181.672-.65.672h-8.88c-.469,0-.65-.181-.65-.65ZM43.471,62.4c1.321.09,2.376.09,4.662.09,6.7,0,13.025-2.376,13.025-11.454,0-7.287-4.528-10.985-12.195-10.985-2.264,0-4.438.09-5.492.181Zm49.411-6.84c-4.55,0-6.074,2.286-6.074,4.171,0,2.083,1.033,3.5,7.107,6.637,8.992,4.373,11.837,8.519,11.837,14.683,0,9.169-7.016,14.1-16.477,14.1-5.023,0-9.3-1.055-11.768-2.466-.357-.181-.448-.469-.448-.943V83.312c0-.56.271-.762.65-.469a21.092,21.092,0,0,0,11.545,3.409c4.55,0,6.435-1.885,6.435-4.459,0-2.083-1.321-3.878-7.085-6.9-8.161-3.9-11.57-7.869-11.57-14.506,0-7.4,5.785-13.542,15.806-13.542,4.933,0,8.407.762,10.313,1.593a1.255,1.255,0,0,1,.56,1.145v7.869c0,.469-.293.762-.852.56a20.746,20.746,0,0,0-10-2.466Z" transform="translate(0 -0.451)"/>
</svg>
