<svg xmlns="http://www.w3.org/2000/svg" width="137.743" height="134.291" viewBox="0 0 137.743 134.291">
  <path id="Icon_corebrands-adobe-after-effects" data-name="Icon corebrands-adobe-after-effects" d="M0,.451V134.742H137.743V.451ZM5.738,6.189H132V129H5.738ZM38.943,76.5l-4.55,17.127c-.09.469-.293.65-.852.65H25.112c-.56,0-.65-.2-.56-.852l16.3-57.013a17.606,17.606,0,0,0,.56-4.709c0-.383.181-.581.469-.581h12.04c.383,0,.56.112.65.581L72.84,93.509c.09.469,0,.74-.469.74H62.91c-.469,0-.762-.155-.852-.538L57.327,76.472H38.943ZM55.037,67.17C53.423,60.826,49.523,46.9,48.111,40.2h-.09c-1.231,6.7-4.326,18.07-6.7,26.972ZM85.8,73.046c.112,7.778,3.788,12.982,12.509,12.982a21.91,21.91,0,0,0,9.349-1.795c.383-.181.672-.069.672.4v7.2a1.239,1.239,0,0,1-.581,1.145c-3.026,1.5-6.792,2.174-11.523,2.174-15.156,0-20.829-11.166-20.829-23.675,0-13.542,6.995-24.617,19.327-24.617,12.487,0,16.835,10.516,16.835,19.034a29.847,29.847,0,0,1-.469,6.074.8.8,0,0,1-.762.719,77.884,77.884,0,0,1-9.573.383H85.8Zm11.661-7.894a32.477,32.477,0,0,0,4.261-.09c0-.383.09-.719.09-.986,0-3.138-1.524-8.88-7.49-8.88-5.492,0-7.869,4.843-8.428,9.956Z" transform="translate(0 -0.451)"/>
</svg>
