<svg xmlns="http://www.w3.org/2000/svg" width="61.404" height="61.404" viewBox="0 0 61.404 61.404">
  <path id="Icon_akar-instagram-fill" data-name="Icon akar-instagram-fill" d="M19.544,1.684C22.818,1.533,23.862,1.5,32.2,1.5s9.384.036,12.655.184A22.594,22.594,0,0,1,52.314,3.11a15.716,15.716,0,0,1,8.976,8.979,22.58,22.58,0,0,1,1.429,7.452c.151,3.28.184,4.323.184,12.66s-.036,9.384-.184,12.658a22.508,22.508,0,0,1-1.429,7.452,15.674,15.674,0,0,1-8.976,8.979,22.58,22.58,0,0,1-7.452,1.429c-3.277.151-4.321.184-12.66.184s-9.384-.036-12.658-.184a22.508,22.508,0,0,1-7.452-1.429,15.063,15.063,0,0,1-5.44-3.539A15.05,15.05,0,0,1,3.11,52.314a22.66,22.66,0,0,1-1.426-7.452C1.533,41.583,1.5,40.539,1.5,32.2s.036-9.384.184-12.655A22.594,22.594,0,0,1,3.11,12.089,15.061,15.061,0,0,1,6.655,6.652,15.05,15.05,0,0,1,12.089,3.11a22.66,22.66,0,0,1,7.452-1.426ZM44.608,7.211C41.371,7.063,40.4,7.032,32.2,7.032s-9.169.031-12.406.179a16.969,16.969,0,0,0-5.7,1.058,9.534,9.534,0,0,0-3.531,2.294,9.523,9.523,0,0,0-2.294,3.531,16.969,16.969,0,0,0-1.058,5.7C7.063,23.033,7.032,24,7.032,32.2s.031,9.169.179,12.406a16.969,16.969,0,0,0,1.058,5.7,9.53,9.53,0,0,0,2.294,3.531,9.53,9.53,0,0,0,3.531,2.294,16.969,16.969,0,0,0,5.7,1.058c3.238.148,4.206.179,12.406.179s9.169-.031,12.406-.179a16.969,16.969,0,0,0,5.7-1.058,10.139,10.139,0,0,0,5.825-5.825,16.969,16.969,0,0,0,1.058-5.7c.148-3.238.179-4.209.179-12.406s-.031-9.169-.179-12.406a16.969,16.969,0,0,0-1.058-5.7,9.534,9.534,0,0,0-2.294-3.531A9.526,9.526,0,0,0,50.31,8.268a16.969,16.969,0,0,0-5.7-1.058ZM28.28,41.666a10.243,10.243,0,1,0-6.32-9.464,10.24,10.24,0,0,0,6.32,9.464ZM21.043,21.043a15.781,15.781,0,1,1,0,22.317,15.781,15.781,0,0,1,0-22.317Zm30.44-2.272a3.732,3.732,0,1,0-5.2-.076A3.732,3.732,0,0,0,51.483,18.771Z" transform="translate(-1.5 -1.5)"/>
</svg>
