<svg xmlns="http://www.w3.org/2000/svg" width="47.492" height="47.492" viewBox="0 0 47.492 47.492">
  <path id="Icon_akar-linkedin-fill" data-name="Icon akar-linkedin-fill" d="M20.641,19.549H29.46v4.393c1.27-2.527,4.528-4.8,9.422-4.8,9.382,0,11.609,5.029,11.609,14.257v17.09h-9.5V35.5c0-5.255-1.27-8.219-4.5-8.219-4.486,0-6.35,3.194-6.35,8.216V50.492h-9.5V19.549ZM4.354,50.089h9.5V19.145h-9.5ZM15.213,9.055a6.008,6.008,0,0,1-1.788,4.279A6.1,6.1,0,0,1,3,9.055,6.017,6.017,0,0,1,4.788,4.774a6.143,6.143,0,0,1,8.636,0A6.027,6.027,0,0,1,15.213,9.055Z" transform="translate(-3 -3)"/>
</svg>
