<svg xmlns="http://www.w3.org/2000/svg" width="138.77" height="135.288" viewBox="0 0 138.77 135.288">
  <path id="Icon_corebrands-adobe-xd" data-name="Icon corebrands-adobe-xd" d="M114.194.451H24.573A24.544,24.544,0,0,0,0,25.026v86.139a24.544,24.544,0,0,0,24.574,24.574h89.621a24.544,24.544,0,0,0,24.574-24.574V25.026A24.544,24.544,0,0,0,114.194.451Zm18.725,108.458A20.923,20.923,0,0,1,112,129.954H26.768A21.014,21.014,0,0,1,5.784,108.97V27.216A21.014,21.014,0,0,1,26.768,6.232h85.167a20.987,20.987,0,0,1,20.984,20.98ZM54.863,63.759l16.2,31.1c.295.473.117.924-.343.924H60.644a1.092,1.092,0,0,1-1.2-.746c-3.7-7.632-7.476-15.264-11.34-23.464H48Q42.666,83.417,37,95.106a1.08,1.08,0,0,1-1.036.629H26.425c-.585,0-.629-.473-.334-.811L41.923,64.747,26.611,34.214c-.364-.473,0-.815.334-.815h9.939c.585,0,.815.117,1.041.629q5.535,11.539,10.819,23.2h.108C52.218,49.591,55.926,41.664,59.49,34.1c.295-.473.473-.768,1.041-.768h9.3c.473,0,.655.364.364.815ZM73.9,73.177c0-13.46,8.946-23.989,23.174-23.989a25.241,25.241,0,0,1,3.005.117V33.993a.581.581,0,0,1,.585-.59h9.124c.473,0,.59.178.59.451v53.1a39.951,39.951,0,0,0,.295,5.642c0,.364-.117.473-.473.659A34.548,34.548,0,0,1,95.4,96.6c-12.558.065-21.5-7.68-21.5-23.421Zm26.183-14.8a8.907,8.907,0,0,0-3.348-.585c-7.29,0-12.372,5.62-12.372,14.93,0,10.637,5.191,14.9,11.743,14.9A10.627,10.627,0,0,0,100.083,87Z" transform="translate(0.001 -0.451)"/>
</svg>
